<svg width="40" height="40" viewBox="0 0 40 40" fill="none" xmlns="http://www.w3.org/2000/svg">
<path d="M19.9999 3.33331C10.7999 3.33331 3.33325 10.8 3.33325 20C3.33325 29.2 10.7999 36.6666 19.9999 36.6666C29.1999 36.6666 36.6666 29.2 36.6666 20C36.6666 10.8 29.1999 3.33331 19.9999 3.33331ZM19.9999 9.99998C23.2166 9.99998 25.8333 12.6166 25.8333 15.8333C25.8333 19.05 23.2166 21.6666 19.9999 21.6666C16.7833 21.6666 14.1666 19.05 14.1666 15.8333C14.1666 12.6166 16.7833 9.99998 19.9999 9.99998ZM19.9999 33.3333C16.6166 33.3333 12.6166 31.9666 9.76659 28.5333C12.6859 26.2428 16.2893 24.998 19.9999 24.998C23.7106 24.998 27.3139 26.2428 30.2333 28.5333C27.3833 31.9666 23.3833 33.3333 19.9999 33.3333Z" fill="#1A66FF"/>
</svg>
